<svg width="118" height="25" viewBox="0 0 118 25" fill="none" xmlns="http://www.w3.org/2000/svg">
<path d="M15.08 1.152V18H10.976V11.064H4.592V18H0.488V1.152H4.592V7.752H10.976V1.152H15.08ZM24.1387 18.192C22.8267 18.192 21.6427 17.912 20.5867 17.352C19.5467 16.792 18.7227 15.992 18.1147 14.952C17.5227 13.912 17.2267 12.696 17.2267 11.304C17.2267 9.928 17.5307 8.72 18.1387 7.68C18.7467 6.624 19.5787 5.816 20.6347 5.256C21.6907 4.696 22.8747 4.416 24.1867 4.416C25.4987 4.416 26.6827 4.696 27.7387 5.256C28.7947 5.816 29.6267 6.624 30.2347 7.68C30.8427 8.72 31.1467 9.928 31.1467 11.304C31.1467 12.68 30.8347 13.896 30.2107 14.952C29.6027 15.992 28.7627 16.792 27.6907 17.352C26.6347 17.912 25.4507 18.192 24.1387 18.192ZM24.1387 14.64C24.9227 14.64 25.5867 14.352 26.1307 13.776C26.6907 13.2 26.9707 12.376 26.9707 11.304C26.9707 10.232 26.6987 9.408 26.1547 8.832C25.6267 8.256 24.9707 7.968 24.1867 7.968C23.3867 7.968 22.7227 8.256 22.1947 8.832C21.6667 9.392 21.4027 10.216 21.4027 11.304C21.4027 12.376 21.6587 13.2 22.1707 13.776C22.6987 14.352 23.3547 14.64 24.1387 14.64ZM38.4119 4.416C39.3559 4.416 40.1799 4.608 40.8839 4.992C41.6039 5.376 42.1559 5.88 42.5399 6.504V4.608H46.6439V17.976C46.6439 19.208 46.3959 20.32 45.8999 21.312C45.4199 22.32 44.6759 23.12 43.6679 23.712C42.6759 24.304 41.4359 24.6 39.9479 24.6C37.9639 24.6 36.3559 24.128 35.1239 23.184C33.8919 22.256 33.1879 20.992 33.0119 19.392H37.0679C37.1959 19.904 37.4999 20.304 37.9799 20.592C38.4599 20.896 39.0519 21.048 39.7559 21.048C40.6039 21.048 41.2759 20.8 41.7719 20.304C42.2839 19.824 42.5399 19.048 42.5399 17.976V16.08C42.1399 16.704 41.5879 17.216 40.8839 17.616C40.1799 18 39.3559 18.192 38.4119 18.192C37.3079 18.192 36.3079 17.912 35.4119 17.352C34.5159 16.776 33.8039 15.968 33.2759 14.928C32.7639 13.872 32.5079 12.656 32.5079 11.28C32.5079 9.904 32.7639 8.696 33.2759 7.656C33.8039 6.616 34.5159 5.816 35.4119 5.256C36.3079 4.696 37.3079 4.416 38.4119 4.416ZM42.5399 11.304C42.5399 10.28 42.2519 9.472 41.6759 8.88C41.1159 8.288 40.4279 7.992 39.6119 7.992C38.7959 7.992 38.0999 8.288 37.5239 8.88C36.9639 9.456 36.6839 10.256 36.6839 11.28C36.6839 12.304 36.9639 13.12 37.5239 13.728C38.0999 14.32 38.7959 14.616 39.6119 14.616C40.4279 14.616 41.1159 14.32 41.6759 13.728C42.2519 13.136 42.5399 12.328 42.5399 11.304ZM48.797 11.28C48.797 9.904 49.053 8.696 49.565 7.656C50.093 6.616 50.805 5.816 51.701 5.256C52.597 4.696 53.597 4.416 54.701 4.416C55.645 4.416 56.469 4.608 57.173 4.992C57.893 5.376 58.445 5.88 58.829 6.504V4.608H62.933V18H58.829V16.104C58.429 16.728 57.869 17.232 57.149 17.616C56.445 18 55.621 18.192 54.677 18.192C53.589 18.192 52.597 17.912 51.701 17.352C50.805 16.776 50.093 15.968 49.565 14.928C49.053 13.872 48.797 12.656 48.797 11.28ZM58.829 11.304C58.829 10.28 58.541 9.472 57.965 8.88C57.405 8.288 56.717 7.992 55.901 7.992C55.085 7.992 54.389 8.288 53.813 8.88C53.253 9.456 52.973 10.256 52.973 11.28C52.973 12.304 53.253 13.12 53.813 13.728C54.389 14.32 55.085 14.616 55.901 14.616C56.717 14.616 57.405 14.32 57.965 13.728C58.541 13.136 58.829 12.328 58.829 11.304ZM70.0061 6.84C70.4861 6.104 71.0861 5.528 71.8061 5.112C72.5261 4.68 73.3261 4.464 74.2061 4.464V8.808H73.0781C72.0541 8.808 71.2861 9.032 70.7741 9.48C70.2621 9.912 70.0061 10.68 70.0061 11.784V18H65.9021V4.608H70.0061V6.84Z" fill="#2563EB"/>
<path d="M76.1197 5.016C76.2317 3.544 76.7997 2.392 77.8237 1.56C78.8477 0.727999 80.1757 0.311999 81.8077 0.311999C82.8957 0.311999 83.8317 0.511999 84.6157 0.912C85.4157 1.296 86.0157 1.824 86.4157 2.496C86.8317 3.168 87.0397 3.928 87.0397 4.776C87.0397 5.768 86.7517 6.624 86.1757 7.344C85.6157 8.064 84.8797 8.528 83.9677 8.736V8.856C85.0077 9.112 85.8317 9.616 86.4397 10.368C87.0477 11.12 87.3517 12.104 87.3517 13.32C87.3517 14.232 87.1437 15.056 86.7277 15.792C86.3117 16.512 85.6877 17.08 84.8557 17.496C84.0237 17.912 83.0237 18.12 81.8557 18.12C80.1597 18.12 78.7677 17.68 77.6797 16.8C76.5917 15.904 75.9837 14.64 75.8557 13.008H77.9677C78.0797 13.968 78.4717 14.752 79.1437 15.36C79.8157 15.968 80.7117 16.272 81.8317 16.272C82.9517 16.272 83.7997 15.984 84.3757 15.408C84.9677 14.816 85.2637 14.056 85.2637 13.128C85.2637 11.928 84.8637 11.064 84.0637 10.536C83.2637 10.008 82.0557 9.744 80.4397 9.744H79.8877V7.92H80.4637C81.9357 7.904 83.0477 7.664 83.7997 7.2C84.5517 6.72 84.9277 5.984 84.9277 4.992C84.9277 4.144 84.6477 3.464 84.0877 2.952C83.5437 2.44 82.7597 2.184 81.7357 2.184C80.7437 2.184 79.9437 2.44 79.3357 2.952C78.7277 3.464 78.3677 4.152 78.2557 5.016H76.1197ZM99.9725 4.776C99.6205 3 98.5245 2.112 96.6845 2.112C95.2605 2.112 94.1965 2.664 93.4925 3.768C92.7885 4.856 92.4445 6.656 92.4605 9.168C92.8285 8.336 93.4365 7.688 94.2845 7.224C95.1485 6.744 96.1085 6.504 97.1645 6.504C98.8125 6.504 100.125 7.016 101.101 8.04C102.093 9.064 102.589 10.48 102.589 12.288C102.589 13.376 102.373 14.352 101.941 15.216C101.525 16.08 100.885 16.768 100.021 17.28C99.1725 17.792 98.1405 18.048 96.9245 18.048C95.2765 18.048 93.9885 17.68 93.0605 16.944C92.1325 16.208 91.4845 15.192 91.1165 13.896C90.7485 12.6 90.5645 11 90.5645 9.096C90.5645 3.224 92.6125 0.287999 96.7085 0.287999C98.2765 0.287999 99.5085 0.711999 100.405 1.56C101.301 2.408 101.829 3.48 101.989 4.776H99.9725ZM96.7085 8.352C96.0205 8.352 95.3725 8.496 94.7645 8.784C94.1565 9.056 93.6605 9.48 93.2765 10.056C92.9085 10.616 92.7245 11.304 92.7245 12.12C92.7245 13.336 93.0765 14.328 93.7805 15.096C94.4845 15.848 95.4925 16.224 96.8045 16.224C97.9245 16.224 98.8125 15.88 99.4685 15.192C100.141 14.488 100.477 13.544 100.477 12.36C100.477 11.112 100.157 10.136 99.5165 9.432C98.8765 8.712 97.9405 8.352 96.7085 8.352ZM105.535 9.144C105.535 6.392 105.983 4.248 106.879 2.712C107.775 1.16 109.343 0.383999 111.583 0.383999C113.807 0.383999 115.367 1.16 116.263 2.712C117.159 4.248 117.607 6.392 117.607 9.144C117.607 11.944 117.159 14.12 116.263 15.672C115.367 17.224 113.807 18 111.583 18C109.343 18 107.775 17.224 106.879 15.672C105.983 14.12 105.535 11.944 105.535 9.144ZM115.447 9.144C115.447 7.752 115.351 6.576 115.159 5.616C114.983 4.64 114.607 3.856 114.031 3.264C113.471 2.672 112.655 2.376 111.583 2.376C110.495 2.376 109.663 2.672 109.087 3.264C108.527 3.856 108.151 4.64 107.959 5.616C107.783 6.576 107.695 7.752 107.695 9.144C107.695 10.584 107.783 11.792 107.959 12.768C108.151 13.744 108.527 14.528 109.087 15.12C109.663 15.712 110.495 16.008 111.583 16.008C112.655 16.008 113.471 15.712 114.031 15.12C114.607 14.528 114.983 13.744 115.159 12.768C115.351 11.792 115.447 10.584 115.447 9.144Z" fill="black"/>
</svg>
